<svg width="42" height="43" viewBox="0 0 42 43" fill="none" xmlns="http://www.w3.org/2000/svg">
<path d="M40.9256 12.4189C41.6249 13.9209 40.9741 15.7054 39.4721 16.4047C37.97 17.104 36.1855 16.4532 35.4862 14.9511C31.8758 7.19593 22.6758 3.84195 14.9362 7.45703C7.19404 11.0732 3.8433 20.2944 7.4549 28.0521C9.975 33.4653 15.7286 36.9745 21.7669 37.0015C23.4237 37.0089 24.7608 38.3581 24.7534 40.0149C24.746 41.6717 23.3969 43.0089 21.74 43.0014C13.4281 42.9643 5.53873 38.1524 2.01547 30.5844C-2.99285 19.8265 1.65393 7.03866 12.397 2.0208C23.143 -2.99849 35.9161 1.65811 40.9256 12.4189Z" fill="#F8B546"/>
</svg>
