<svg width="26" height="22" viewBox="0 0 26 22" fill="none" xmlns="http://www.w3.org/2000/svg">
<path d="M25.0013 21.9997L24.9863 21.9996H1.01294L0.997892 21.9997C0.644013 21.9997 0.313552 21.8097 0.135442 21.5037C-0.0451475 21.1928 -0.0451475 20.8066 0.135442 20.4957C0.314053 20.1898 0.645453 19.9997 1.00033 19.9997L1.01294 19.9998H24.9862L24.9988 19.9997C25.3537 19.9997 25.6851 20.1898 25.8637 20.4957C26.0443 20.8066 26.0443 21.1928 25.8637 21.5037C25.6856 21.8097 25.3552 21.9997 25.0013 21.9997ZM23.9872 18H23.9862H19.9921V5.0004C19.9921 4.44856 20.4403 3.9996 20.9911 3.9996H22.9882C23.5391 3.9996 23.9872 4.44856 23.9872 5.0004V18ZM17.9941 18H13.9981V7.0002C13.9981 6.44885 14.4463 6.0003 14.9971 6.0003H16.9951C17.546 6.0003 17.9941 6.44885 17.9941 7.0002V18ZM12.001 18H8.00504V0.9999C8.00504 0.44855 8.45319 0 9.00404 0H11.002C11.5529 0 12.001 0.44855 12.001 0.9999V18ZM6.00704 18H2.01194V2.9997C2.01194 2.44835 2.45969 1.9998 3.01004 1.9998H5.00804C5.55889 1.9998 6.00704 2.44835 6.00704 2.9997V18Z" fill="#949494"/>
</svg>
