<svg width="20" height="24" viewBox="0 0 20 24" fill="none" xmlns="http://www.w3.org/2000/svg">
<path d="M9.95873 22.8369C11.1906 22.8369 12.1984 21.8291 12.1984 20.5972H7.71905C7.71905 21.8291 8.72691 22.8369 9.95873 22.8369ZM16.6778 16.1179V10.5187C16.6778 7.08074 14.8524 4.20275 11.6385 3.44126V2.67976C11.6385 1.75029 10.8882 1 9.95873 1C9.02927 1 8.27897 1.75029 8.27897 2.67976V3.44126C5.07622 4.20275 3.23968 7.06954 3.23968 10.5187V16.1179L1 18.3575V19.4774H18.9175V18.3575L16.6778 16.1179ZM14.4381 17.2377H5.47937V10.5187C5.47937 7.74145 7.17033 5.47937 9.95873 5.47937C12.7471 5.47937 14.4381 7.74145 14.4381 10.5187V17.2377Z" fill="black" stroke="white"/>
</svg>
