<svg width="26" height="27" viewBox="0 0 26 27" fill="none" xmlns="http://www.w3.org/2000/svg">
<g filter="url(#filter0_d_3231_138)">
<path d="M22.6289 16.2772V16.5484C21.8834 17.1057 21.1379 17.6631 20.3573 18.2466C21.1431 18.8791 21.886 19.477 22.6289 20.075V20.3463C22.4514 20.4344 22.2623 20.4387 22.0684 20.4385C20.3083 20.4355 18.5465 20.4839 16.7889 20.4179C16.1441 20.3937 15.5304 20.6252 14.9171 20.7894C14.6274 20.8669 14.3279 20.949 14.026 20.9301C13.6821 20.9086 13.3475 20.8168 13.0146 20.7335C12.7515 20.6677 12.343 20.4032 12.1072 20.4971C11.7781 20.6283 11.4891 20.8023 11.1388 20.8899C10.6358 21.0157 10.1067 21.0441 9.60061 20.9202C8.73446 20.7081 8.01528 20.1111 7.40184 19.4903C6.48592 18.5635 5.70104 17.5081 5.03582 16.389C4.77361 15.9479 4.54979 15.0269 3.93816 14.9686C3.77587 14.9532 3.59481 14.9938 3.46175 14.8997C3.30849 14.7912 3.31066 14.5862 3.29998 14.4186C3.28389 14.1643 3.26848 13.91 3.24929 13.6558C3.21193 13.1606 3.16677 12.6659 3.12078 12.1714C3.10967 12.0512 2.97606 10.4886 3.00377 10.4899C3.56102 10.5155 3.81133 10.1017 3.94387 9.61552C4.17345 8.77319 4.48391 8.07249 5.0999 7.43243C5.75768 6.74902 6.61709 6.24355 7.55044 6.05501C8.21666 5.92044 8.90606 5.93002 9.57424 6.04506C10.2733 6.16536 10.9364 6.46764 11.6944 6.4774C11.6366 5.72484 11.6511 4.9931 11.6883 4.2581C11.4954 4.23955 11.3799 4.35106 11.2456 4.40599C10.4973 4.7119 9.73058 4.90024 8.91692 4.75336C6.84948 4.38011 5.99697 2.77797 5.16323 1.09897C6.13665 0.983948 7.04342 0.846466 7.96611 0.887115C9.52767 0.955902 10.7596 1.6097 11.6431 2.90784C11.7131 3.01074 11.7386 3.16153 11.91 3.19855C12.2784 1.93065 12.9239 0.844208 13.9468 0.000488281H14.3086C14.6883 0.408157 14.7138 0.637115 14.3603 0.977875C12.852 2.43158 12.543 4.26018 12.6844 6.23747C12.6985 6.43604 12.7556 6.49849 12.9599 6.45079C13.485 6.32825 14.0125 6.21286 14.5428 6.11475C17.3909 5.58765 20.0095 7.31006 20.6394 10.13C20.6843 10.3307 20.7462 10.4244 20.957 10.3991C21.3992 10.346 21.4202 10.6039 21.3468 10.9338C21.0957 12.0606 20.8507 13.1887 20.5948 14.3143C20.5267 14.6138 20.5699 15.0243 20.0519 14.9606C20.0152 14.9561 19.9513 15.0257 19.929 15.0741C19.7644 15.4326 19.6072 15.7946 19.4339 16.1868C20.3517 16.1868 21.2096 16.188 22.0676 16.1857C22.2607 16.1852 22.4528 16.179 22.6289 16.2772ZM12.1848 10.8716C11.7025 10.8716 11.2203 10.8716 10.738 10.8716C8.46221 10.8716 6.18642 10.8694 3.91063 10.876C3.7506 10.8765 3.48842 10.7536 3.51775 11.118C3.60103 12.1534 3.67821 13.1895 3.74151 14.2263C3.75887 14.5111 3.96358 14.4754 4.19445 14.4854C4.25466 14.488 4.3164 14.4905 4.37356 14.4715C4.50411 14.428 4.51189 14.2945 4.50536 14.1772C4.48705 13.8468 4.49694 13.5145 4.50264 13.183C4.50518 13.035 4.49575 12.857 4.70684 12.8425C4.93969 12.8263 4.96776 12.9987 4.9692 13.1761C4.97136 13.4473 4.9934 13.7211 4.96435 13.9892C4.91726 14.4239 5.25582 14.5328 5.62374 14.4917C5.77108 14.4752 5.98678 14.4666 6.07692 14.3347C6.17394 14.1929 6.13872 13.9271 6.1419 13.7675C6.14562 13.5811 6.08724 13.3111 6.36971 13.3185C6.62304 13.3252 6.60595 13.5785 6.60973 13.7775C6.62365 14.4946 6.62517 14.4946 7.35759 14.4776C7.37261 14.4773 7.38796 14.4755 7.40273 14.4778C7.64663 14.5172 7.71288 14.4065 7.69967 14.1737C7.68087 13.8433 7.69515 13.5109 7.69491 13.1794C7.69481 13.0053 7.70025 12.8256 7.94234 12.8401C8.14489 12.8522 8.16045 13.0105 8.15999 13.1703C8.15902 13.5168 8.15902 13.8633 8.16018 14.2097C8.16091 14.405 8.19768 14.4538 8.39159 14.4938C8.62017 14.5411 9.02263 14.5871 9.18987 14.3881C9.33461 14.2159 9.31667 13.8957 9.32518 13.688C9.32644 13.6578 9.32827 13.6275 9.32583 13.5976C9.31234 13.4361 9.3944 13.3143 9.54232 13.3105C9.71981 13.3061 9.7922 13.4428 9.78902 13.618C9.78524 13.8289 9.79229 14.0399 9.78777 14.2508C9.78432 14.4097 9.84215 14.5198 10.0078 14.5183C10.3263 14.5153 10.9547 14.6716 11.0417 14.2468C11.1041 13.9432 11.0486 13.6162 11.0548 13.2999C11.0586 13.114 10.9954 12.8585 11.2825 12.8443C11.5901 12.8291 11.5182 13.0947 11.5235 13.2761C11.5326 13.5922 11.524 13.9089 11.5273 14.2253C11.5283 14.3232 11.4913 14.4645 11.6478 14.4679C11.9767 14.475 12.3308 14.5318 12.6253 14.4283C12.7871 14.3715 12.6688 14.0164 12.6822 13.7965C12.6949 13.5871 12.6541 13.3131 12.9475 13.3213C13.2222 13.3291 13.1542 13.6028 13.1576 13.7872C13.1608 13.9597 13.1174 14.2759 13.2663 14.4064C13.4284 14.5482 13.7107 14.5031 13.9062 14.4914C14.1427 14.4772 14.2808 14.4392 14.2572 14.163C14.2342 13.8937 14.2424 13.6204 14.2553 13.3498C14.2645 13.1568 14.1677 12.8539 14.4776 12.8513C14.8199 12.8484 14.7098 13.1684 14.7204 13.3714C14.7355 13.6569 14.7216 13.9438 14.726 14.2301C14.7274 14.3274 14.6896 14.47 14.8488 14.4721C15.1035 14.4755 15.6034 14.5796 15.8274 14.4281C16.0164 14.3001 15.8732 13.9865 15.8951 13.7935C15.9071 13.6892 15.8984 13.5816 15.919 13.4796C15.9377 13.3871 16.0071 13.3221 16.1058 13.311C16.2095 13.2994 16.2886 13.3619 16.3154 13.4484C16.3501 13.5603 16.3626 13.6823 16.3654 13.8004C16.3693 13.9652 16.3296 14.2666 16.4634 14.3967C16.6214 14.5505 16.918 14.4971 17.115 14.4896C17.3542 14.4804 17.4885 14.4402 17.4697 14.1635C17.4462 13.8185 17.4647 13.4707 17.4641 13.1241C17.4639 12.9744 17.5007 12.8472 17.6777 12.839C17.8782 12.8297 17.9291 12.9592 17.9278 13.1325C17.9254 13.4639 17.9431 13.7965 17.9221 14.1266C17.897 14.5233 18.3288 14.5435 18.6186 14.493C18.7733 14.4661 18.9525 14.4426 19.0286 14.2964C19.1163 14.1284 19.0881 13.8686 19.0939 13.6871C19.0996 13.5099 19.108 13.3143 19.3149 13.3116C19.5537 13.3084 19.5659 13.5194 19.5593 13.7099C19.5551 13.8303 19.5346 13.9574 19.5646 14.0699C19.5928 14.1751 19.5023 14.2975 19.5621 14.3969C19.6308 14.5112 19.8105 14.5106 19.9223 14.4747C20.0907 14.4207 20.1356 14.2832 20.17 14.1197C20.3584 13.2241 20.5503 12.3292 20.7426 11.4344C20.8637 10.8712 20.8652 10.8716 20.2782 10.8716C17.5804 10.8716 14.8826 10.8716 12.1848 10.8716ZM21.6928 16.6548C20.8184 16.6548 20.0859 16.6569 19.3535 16.6529C19.2233 16.6521 19.129 16.6783 19.0564 16.8007C18.3754 17.9484 17.5787 19.0068 16.5526 19.9461H21.7029C21.0794 19.4398 20.5285 18.9824 19.9657 18.54C19.6987 18.33 19.6667 18.1682 19.9669 17.9533C20.5143 17.5615 21.044 17.1452 21.6928 16.6548ZM6.35592 14.9948C6.86864 16.1281 7.67553 17.0018 8.59017 17.7912C8.8153 17.9854 9.0598 18.1268 9.28664 17.8392C9.4919 17.579 9.32482 17.368 9.10723 17.191C8.52105 16.7141 7.96285 16.1926 7.58419 15.5436C7.29226 15.0431 6.96441 14.8107 6.35592 14.9948Z" fill="#FAA057"/>
</g>
<defs>
<filter id="filter0_d_3231_138" x="0" y="0.000488281" width="25.6289" height="26.9995" filterUnits="userSpaceOnUse" color-interpolation-filters="sRGB">
<feFlood flood-opacity="0" result="BackgroundImageFix"/>
<feColorMatrix in="SourceAlpha" type="matrix" values="0 0 0 0 0 0 0 0 0 0 0 0 0 0 0 0 0 0 127 0" result="hardAlpha"/>
<feOffset dy="3"/>
<feGaussianBlur stdDeviation="1.5"/>
<feComposite in2="hardAlpha" operator="out"/>
<feColorMatrix type="matrix" values="0 0 0 0 0 0 0 0 0 0 0 0 0 0 0 0 0 0 0.160784 0"/>
<feBlend mode="normal" in2="BackgroundImageFix" result="effect1_dropShadow_3231_138"/>
<feBlend mode="normal" in="SourceGraphic" in2="effect1_dropShadow_3231_138" result="shape"/>
</filter>
</defs>
</svg>
