<svg width="31" height="31" viewBox="0 0 31 31" fill="none" xmlns="http://www.w3.org/2000/svg">
<path d="M0.947266 1H30V30.0527H0.947266V1Z" stroke="white"/>
<path d="M5.78923 5.8422H25.1577V20.3686H7.20555L5.78923 21.7849V5.8422ZM5.78923 3.42114C4.45764 3.42114 3.38027 4.51062 3.38027 5.8422L3.36816 27.6318L8.21029 22.7896H25.1577C26.4893 22.7896 27.5788 21.7002 27.5788 20.3686V5.8422C27.5788 4.51062 26.4893 3.42114 25.1577 3.42114H5.78923ZM8.21029 15.5264H22.7367V17.9475H8.21029V15.5264ZM8.21029 11.8949H22.7367V14.3159H8.21029V11.8949ZM8.21029 8.26327H22.7367V10.6843H8.21029V8.26327Z" fill="black" stroke="white"/>
</svg>
