<svg width="23" height="23" viewBox="0 0 23 23" fill="none" xmlns="http://www.w3.org/2000/svg">
<path d="M20.9997 23.0004H1.9998C0.89711 23.0004 0 22.1029 0 20.9997V1.9998C0 0.89711 0.89711 0 1.9998 0H20.9997C22.1029 0 23.0004 0.89711 23.0004 1.9998V20.9997C23.0004 22.1029 22.1029 23.0004 20.9997 23.0004ZM4.2498 16.2C3.56049 16.2 2.9997 16.7608 2.9997 17.4501C2.9997 18.1394 3.56049 18.7002 4.2498 18.7002C4.93911 18.7002 5.4999 18.1394 5.4999 17.4501C5.4999 16.7608 4.93911 16.2 4.2498 16.2ZM8.8497 16.8003C8.38123 16.8003 8.0001 17.1814 8.0001 17.6499C8.0001 18.1189 8.38123 18.5004 8.8497 18.5004H19.1502C19.6187 18.5004 19.9998 18.1189 19.9998 17.6499C19.9998 17.1814 19.6187 16.8003 19.1502 16.8003H8.8497ZM4.2498 10.1997C3.56049 10.1997 2.9997 10.7605 2.9997 11.4498C2.9997 12.1391 3.56049 12.6999 4.2498 12.6999C4.93911 12.6999 5.4999 12.1391 5.4999 11.4498C5.4999 10.7605 4.93911 10.1997 4.2498 10.1997ZM8.8497 10.8C8.38123 10.8 8.0001 11.1811 8.0001 11.6496C8.0001 12.1186 8.38123 12.5001 8.8497 12.5001H19.1502C19.6187 12.5001 19.9998 12.1186 19.9998 11.6496C19.9998 11.1811 19.6187 10.8 19.1502 10.8H8.8497ZM4.2498 4.2003C3.56049 4.2003 2.9997 4.76109 2.9997 5.4504C2.9997 6.13921 3.56049 6.6996 4.2498 6.6996C4.93911 6.6996 5.4999 6.13921 5.4999 5.4504C5.4999 4.76109 4.93911 4.2003 4.2498 4.2003ZM8.8497 4.7997C8.38123 4.7997 8.0001 5.18123 8.0001 5.6502C8.0001 6.11867 8.38123 6.4998 8.8497 6.4998H19.1502C19.6187 6.4998 19.9998 6.11867 19.9998 5.6502C19.9998 5.18123 19.6187 4.7997 19.1502 4.7997H8.8497Z" fill="#949494"/>
</svg>
