<svg width="23" height="23" viewBox="0 0 23 23" fill="none" xmlns="http://www.w3.org/2000/svg">
<path d="M21.1041 17.9886C19.7966 17.2386 18.5356 16.8696 17.5462 16.6466C17.5482 16.6456 17.5502 16.6456 17.5522 16.6446C17.4533 16.6226 17.3644 16.6046 17.2705 16.5856C17.2089 16.5726 17.1474 16.5586 17.0878 16.5476C16.5214 16.4316 16.0761 16.3586 15.8328 16.2796C15.1937 16.0686 14.5062 15.8456 14.5062 14.9456C14.5062 14.0467 14.494 13.9287 14.7121 13.8087C15.1271 13.5767 15.3724 13.2187 15.4269 12.9407C15.5279 12.4217 15.5804 10.9677 15.7117 10.7827C15.8429 10.5938 16.0782 10.7547 16.1589 10.3288C16.2367 9.90277 16.2367 9.52878 16.3144 9.36978C16.3932 9.20979 16.6678 8.17781 16.4982 7.82382C16.3467 7.50783 16.0721 7.67283 16.0529 7.47683C16.0196 7.15784 16.6062 4.47991 16.2094 3.34594C15.9863 2.70296 15.5148 2.10697 15.5107 2.09297C15.222 1.052 13.23 0.494016 12.7312 0.280022C12.2325 0.0670275 10.7655 -0.225965 9.76897 0.280022C8.77246 0.787009 8.50491 1.46899 8.0839 1.73498C7.6649 2.00298 7.21763 2.16597 6.8057 3.34594C6.40892 4.47991 6.99551 7.15784 6.9632 7.47683C6.94402 7.67283 6.66839 7.50783 6.51897 7.82382C6.34733 8.17781 6.62296 9.20979 6.7007 9.36978C6.77945 9.52878 6.77945 9.90277 6.85921 10.3288C6.93695 10.7547 7.1722 10.5938 7.30446 10.7827C7.43571 10.9677 7.48821 12.4217 7.58918 12.9407C7.64269 13.2187 7.88904 13.5767 8.304 13.8087C8.52107 13.9287 8.50996 14.0467 8.50996 14.9456C8.50996 15.8456 7.82341 16.0686 7.18229 16.2796C6.49575 16.5056 4.25436 16.6346 1.89587 17.9886C-0.131472 19.1515 0.0017994 22.4994 0.0017994 22.4994H8.95824H11.0128H22.9982C22.9982 22.4994 23.1324 19.1515 21.1041 17.9886Z" fill="#949494"/>
</svg>
