<svg width="19" height="24" viewBox="0 0 19 24" fill="none" xmlns="http://www.w3.org/2000/svg">
<path d="M2.68829 23.4999C1.20599 23.4999 0 22.2524 0 20.7189V2.78101C0 1.24731 1.20599 0 2.68829 0H15.8121C17.2944 0 18.5004 1.24731 18.5004 2.78101V20.7189C18.5004 22.2524 17.2944 23.4999 15.8121 23.4999H2.68829ZM1.6344 2.72607V20.7747C1.6344 21.3812 2.10687 21.8754 2.68829 21.8754H15.8121C16.3926 21.8754 16.8651 21.3812 16.8651 20.7747V2.72607C16.8651 2.11951 16.3926 1.62537 15.8121 1.62537H2.68829C2.10687 1.62537 1.6344 2.11951 1.6344 2.72607ZM3.01947 20.2941V6.92456H15.4809V20.2941H3.01947ZM3.71161 4.60522C3.3291 4.60522 3.01947 4.29749 3.01947 3.91772C3.01947 3.53784 3.3291 3.2301 3.71161 3.2301H9.25018C9.63269 3.2301 9.94232 3.53784 9.94232 3.91772C9.94232 4.29749 9.63269 4.60522 9.25018 4.60522H3.71161Z" fill="#9D9D9D" stroke="black"/>
</svg>
